# xmcd
# 
# Track frame offsets:
#     150
#     20635
#     44737
#     64258
#     89592
#     113379
#     132881
#     157246
#     179723
#     198776
# 
# Disc length: 2988
# 
# Revision: 0
# Processed by: cddbd v1.5.2PL0 Copyright (c) Steve Scherf et al.
# Submitted via: BonkEnc v1.0
# 
DISCID=900baa0a
DTITLE=Armanda Marshall - Armanda Marshall
DYEAR=1996
DGENRE=Country
TTITLE0=Let It Rain
TTITLE1=Birmingham
TTITLE2=Fall From Grace
TTITLE3=Dark Horse
TTITLE4=Beautiful Goodbye
TTITLE5=Sitting On Top Of The Horse
TTITLE6=Last Exit To Edden
TTITLE7=Trust Me (This Is Love)
TTITLE8=Let's Get Lost
TTITLE9=Promises
EXTD=Genre korrekt?
EXTT0=
EXTT1=
EXTT2=
EXTT3=
EXTT4=
EXTT5=
EXTT6=
EXTT7=
EXTT8=
EXTT9=
PLAYORDER=
